{"title":"Girl Friend Neeena  Sucking  1st April 2012{ww.}-=MTR-=","uid":7152331,"size":20677741,"categoryP":"porn","categoryS":"other","magnet":"?xt=urn:btih:ce4408ef940fcd4ac1852494318460b6a5246f3c&amp;dn=Girl+Friend+Neeena++Sucking++1st+April+2012%7Bww.%7D-%3DMTR-%3D&amp;tr=udp%3A%2F%2Ftracker.openbittorrent.com%3A80&amp;tr=udp%3A%2F%2Fopen.demonii.com%3A1337&amp;tr=udp%3A%2F%2Ftracker.coppersurfer.tk%3A6969&amp;tr=udp%3A%2F%2Fexodus.desync.com%3A6969","seeders":1,"leechers":0,"uploader":"Devdeep","files":2,"time":1333348381,"description":"Girl Friend Neeena  Sucking  1st April\n\n\nFile Info............\n\nFormat                           : MPEG-4\nCodec ID                         : M4V \nFile size                        : 19.6 MiB\nDuration                         : 9mn 20s\nOverall bit rate                 : 293 Kbps\nWriting application              : Lavf52.93.0\n\nVideo\nID                               : 1\nFormat                           : AVC\nFormat/Info                      : Advanced Video Codec\nFormat profile                   : &lt;a class=&quot;__cf_email__&quot; href=&quot;/cdn-cgi/l/email-protection&quot; data-cfemail=&quot;21634052444d484f44616d100f12&quot;&gt;[email&amp;#160;protected]&lt;/a&gt;&lt;script cf-hash='f9e31' type=&quot;text/javascript&quot;&gt;\n/* &lt;![CDATA[ */!function(){try{var t=&quot;currentScript&quot;in document?document.currentScript:function(){for(var t=document.getElementsByTagName(&quot;script&quot;),e=t.length;e--;)if(t[e].getAttribute(&quot;cf-hash&quot;))return t[e]}();if(t&amp;&amp;t.previousSibling){var e,r,n,i,c=t.previousSibling,a=c.getAttribute(&quot;data-cfemail&quot;);if(a){for(e=&quot;&quot;,r=parseInt(a.substr(0,2),16),n=2;a.length-n;n+=2)i=parseInt(a.substr(n,2),16)^r,e+=String.fromCharCode(i);e=document.createTextNode(e),c.parentNode.replaceChild(e,c)}}}catch(u){}}();/* ]]&gt; */&lt;/script&gt;\nFormat settings, CABAC           : No\nFormat settings, ReFrames        : 3 frames\nCodec ID                         : avc1\nCodec ID/Info                    : Advanced Video Coding\nDuration                         : 9mn 20s\nBit rate mode                    : Variable\nBit rate                         : 256 Kbps\nWidth                            : 320 pixels\nHeight                           : 240 pixels\nDisplay aspect ratio             : 16:9\nFrame rate mode                  : Constant\nFrame rate                       : 29.970 fps\nColor space                      : YUV\nChroma subsampling               : 4:2:0\nBit depth                        : 8 bits\nScan type                        : Progressive\nBits/(Pixel*Frame)               : 0.111\nStream size                      : 17.2 MiB (88%)\nWriting library                  : x264 core 118\n\nLanguage                         : English\n\nAudio\nID                               : 2\nFormat                           : AAC\nFormat/Info                      : Advanced Audio Codec\nFormat profile                   : LC\nCodec ID                         : 40\nDuration                         : 9mn 20s\nBit rate mode                    : Variable\nBit rate                         : 32.0 Kbps\nChannel(s)                       : 1 channel\nChannel positions                : Front: C\nSampling rate                    : 24.0 KHz\nCompression mode                 : Lossy\nStream size                      : 2.14 MiB (11%)\nLanguage                         : English\n\n\n\n\nScreens...........\n &lt;a href=&quot;\nhttp://picturestack.com/337/509/boWStairs868.jpg&quot; rel=&quot;nofollow&quot; target=&quot;_NEW&quot;&gt;\nhttp://picturestack.com/337/509/boWStairs868.jpg&lt;/a&gt;\n\n","torrent":{"xt":"urn:btih:ce4408ef940fcd4ac1852494318460b6a5246f3c","amp;dn":"Girl+Friend+Neeena++Sucking++1st+April+2012%7Bww.%7D-%3DMTR-%3D","amp;tr":["udp%3A%2F%2Ftracker.openbittorrent.com%3A80","udp%3A%2F%2Fopen.demonii.com%3A1337","udp%3A%2F%2Ftracker.coppersurfer.tk%3A6969","udp%3A%2F%2Fexodus.desync.com%3A6969"],"infoHash":"ce4408ef940fcd4ac1852494318460b6a5246f3c","infoHashBuffer":{"type":"Buffer","data":[206,68,8,239,148,15,205,74,193,133,36,148,49,132,96,182,165,36,111,60]},"announce":[],"urlList":[]}}